<svg width="357" height="375" viewBox="0 0 357 375" fill="none" xmlns="http://www.w3.org/2000/svg">
<g clip-path="url(#clip0_48_4269)">
<path d="M357 0C340.504 2.54862 323.243 8.57844 312.86 22.3787C301.975 36.8442 303.322 59.3656 304.51 76.5346C305.726 94.053 305.112 111.748 305.121 129.375C305.145 167.243 304.999 205.111 304.999 242.979C294.136 241.563 284.239 234.908 276.021 227.411C267.574 219.704 260.115 211.053 253.005 202.076V66.6348C253.005 29.8332 282.856 0 319.68 0H356.997H357Z" fill="url(#paint0_linear_48_4269)"/>
<path d="M357 199.725V0C340.504 2.54862 323.243 8.57844 312.86 22.3787C301.975 36.8442 303.322 59.3656 304.51 76.5346C305.726 94.053 305.112 111.748 305.121 129.375C305.145 167.243 305 205.111 305 242.979C306.559 243.182 308.139 243.28 309.735 243.252C320.991 243.07 331.453 236.767 339.073 228.486C346.483 220.439 351.611 210.615 356.529 200.84C356.663 200.46 356.821 200.087 356.997 199.722L357 199.725Z" fill="url(#paint1_linear_48_4269)"/>
<path d="M304.683 197.252C304.711 199.944 304.759 202.635 304.817 205.326C304.844 206.709 304.875 208.088 304.908 209.47C304.923 210.138 304.857 210.803 304.835 211.472C304.835 211.484 304.835 211.499 304.835 211.511C304.905 211.168 304.99 210.828 305.094 210.493C305.085 209.849 305.094 209.206 305.091 208.562C305.075 206.76 305.057 204.956 305.042 203.154C305.015 200.068 305.303 196.961 305.389 193.868C305.398 193.552 305.404 193.236 305.41 192.92C305.422 192.143 305.458 191.365 305.468 190.587C305.504 187.392 305.544 184.196 305.586 181.001C305.671 174.609 305.762 168.218 305.844 161.83C305.927 155.438 305.999 149.047 306.045 142.659C306.091 136.267 306.109 129.876 306.085 123.488C306.06 117.097 305.993 110.705 305.863 104.317C305.796 100.93 305.711 97.543 305.604 94.1559C305.276 84.5113 304.942 74.8241 304.276 65.1855C304.154 61.9868 304.097 58.7668 304.161 55.5651C304.416 47.0839 305.212 38.3566 308.544 30.4829C310.823 25.2581 314.082 20.4524 318.149 16.4761C319.139 15.4554 320.179 14.4773 321.328 13.6328C320.152 14.4378 319.076 15.3856 318.048 16.3758C313.799 20.2611 310.446 25.0211 307.999 30.2399C306.13 34.1494 305.121 38.4082 304.376 42.661C302.948 51.1635 302.784 59.8726 303.243 68.4662C303.68 77.0355 303.911 85.617 304.158 94.2015C305.091 128.543 304.267 162.902 304.68 197.255L304.683 197.252Z" fill="url(#paint2_linear_48_4269)"/>
<path d="M103.989 172.79V308.371C103.989 345.167 74.1404 374.997 37.3195 374.997H0C16.4834 371.124 33.2252 362.497 42.6478 347.934C52.6053 332.539 51.9974 313.274 51.9974 296.014V132.589C64.6936 134.156 75.9672 142.346 85.2074 151.423C91.9886 158.087 98.0981 165.347 103.989 172.79Z" fill="url(#paint3_linear_48_4269)"/>
<path d="M42.6478 347.937C33.2252 362.497 16.4834 371.127 0 375V175.175C9.45601 155.448 23.3133 131.766 48.4351 132.331C48.8211 132.34 49.2071 132.356 49.5901 132.377C50.3956 132.422 51.201 132.495 51.9944 132.589V296.017C51.9944 313.274 52.6023 332.542 42.6447 347.937H42.6478Z" fill="url(#paint4_linear_48_4269)"/>
<path d="M52.0733 157.777C52.5353 196.225 53.4776 242.927 52.8089 280.971C52.5748 294.388 52.1554 308.076 51.4867 321.476C51.4259 323.104 51.3864 324.768 51.1341 326.378C50.7146 329.638 49.6933 332.721 48.7784 335.871C47.2009 341.069 44.593 345.974 41.3772 350.327C38.7935 353.809 35.7327 356.934 32.2859 359.559C35.6203 356.819 38.5686 353.614 41.055 350.094C43.8483 346.142 46.0246 341.764 47.5535 337.189C48.052 335.646 48.3863 334.079 48.8666 332.514C49.4654 330.473 49.8818 328.359 50.1523 326.251C50.3681 324.665 50.3803 323.052 50.4198 321.454C50.8696 308.486 51.1888 293.899 51.3529 280.953C51.8605 240.746 51.2405 198.018 52.0702 157.78L52.0733 157.777Z" fill="url(#paint5_linear_48_4269)"/>
<path opacity="0.35" d="M103.989 172.79V202.262C98.0981 194.823 91.9886 187.559 85.2074 180.895C79.2134 175.008 72.3623 169.491 64.8243 165.916C64.806 165.904 64.7908 165.895 64.7726 165.892C60.7786 164.002 56.5902 162.66 52.2375 162.091C23.4956 156.785 0.319152 174.926 0 175.172C9.45297 155.445 23.3102 131.766 48.432 132.331C62.5841 132.647 75.107 141.508 85.2013 151.423C91.9826 158.088 98.092 165.348 103.983 172.79H103.989Z" fill="#310075"/>
<path d="M357 247.876V315.604C357 301.324 356.979 287.044 356.96 272.763C351.909 282.815 346.699 292.976 339.076 301.26C331.453 309.538 320.994 315.841 309.738 316.026C297.012 316.23 285.422 308.757 276.024 300.185C267.577 292.478 260.118 283.827 253.008 274.85C252.619 274.361 252.233 273.866 251.844 273.374C243.127 262.271 234.89 250.734 225.938 239.938C207.908 218.188 189.877 196.435 171.849 174.685C155.126 154.509 138.399 134.333 121.673 114.156C116.18 107.531 110.691 100.906 105.198 94.2808C104.8 93.8039 104.399 93.33 103.989 92.8683C98.5631 86.7261 91.9856 81.8384 84.718 78.421C76.8973 74.7454 68.2802 72.777 59.4291 72.777C26.6081 72.774 0 99.3659 0 132.17V59.396C0 26.592 26.6081 0 59.4321 0C68.2802 0 76.9004 1.96842 84.7211 5.64403C91.9886 9.06143 98.5662 13.946 103.992 20.0913C104.402 20.553 104.803 21.0269 105.201 21.5038C110.694 28.129 116.183 34.7542 121.676 41.3794C138.399 61.5558 155.126 81.7321 171.853 101.908C189.883 123.658 207.914 145.411 225.941 167.161C234.89 177.957 243.13 189.494 251.847 200.597C252.236 201.089 252.622 201.584 253.011 202.073C260.121 211.05 267.58 219.701 276.027 227.408C285.428 235.98 297.018 243.453 309.741 243.249C320.997 243.067 331.459 236.764 339.079 228.483C346.705 220.202 351.912 210.041 356.964 199.986C356.985 215.949 357.003 231.91 357.003 247.873L357 247.876Z" fill="url(#paint6_linear_48_4269)"/>
<path d="M357 315.604V315.759C356.915 348.49 330.34 374.997 297.568 374.997C288.72 374.997 280.1 373.029 272.279 369.353C265.008 365.936 258.428 361.048 253.002 354.9C252.595 354.441 252.194 353.967 251.798 353.494C250.847 352.348 249.896 351.2 248.947 350.052C235.817 334.207 222.683 318.366 209.549 302.521C190.056 279.009 170.564 255.492 151.071 231.98C139.828 218.413 128.8 204.644 117.946 190.771C113.278 184.804 108.7 178.741 103.986 172.79C98.0951 165.351 91.9856 158.088 85.2044 151.423C75.1101 141.508 62.5841 132.647 48.4351 132.331C23.3133 131.766 9.45601 155.448 0 175.175V132.17C0 99.3694 26.6081 72.7744 59.4321 72.7744C68.2802 72.7744 76.9004 74.7428 84.7211 78.4184C91.9886 81.8358 98.5662 86.7205 103.992 92.8657C104.402 93.3274 104.803 93.8013 105.201 94.2782C110.694 100.903 116.183 107.529 121.676 114.154C138.399 134.33 155.126 154.507 171.853 174.683C189.883 196.433 207.914 218.186 225.941 239.936C234.89 250.731 243.13 262.269 251.847 273.371C252.236 273.864 252.622 274.359 253.011 274.848C260.121 283.824 267.58 292.475 276.027 300.182C285.428 308.754 297.018 316.227 309.741 316.024C320.997 315.841 331.459 309.538 339.079 301.257C346.705 292.977 351.912 282.816 356.964 272.761C356.982 287.041 357 301.321 357.003 315.601L357 315.604Z" fill="url(#paint7_linear_48_4269)"/>
<path d="M26.4927 82.7439C48.9214 67.5858 80.1041 69.6119 100.001 88.1267C101.603 89.6486 103.113 91.3132 104.499 92.9991C120.025 111.353 135.77 129.986 151.114 148.455C162.248 161.854 173.707 175.834 184.448 189.157C184.844 189.504 185.336 189.71 185.707 190.12C193.853 200.221 202.652 210.719 210.509 220.613C210.877 220.88 211.254 221.068 211.573 221.424C218.075 229.914 225.385 237.827 231.926 246.321C234.118 249.146 236.294 251.983 238.461 254.826C244.923 263.319 251.476 271.913 257.969 280.385C260.182 283.171 262.534 285.85 264.896 288.535C267.252 291.218 269.543 293.927 272.163 296.351C277.401 301.154 282.671 306.026 288.79 309.699C294.829 313.396 301.808 315.701 308.902 315.944C314.231 316.069 319.541 314.611 324.343 312.345C329.176 310.027 333.538 306.807 337.352 303.049C332.349 308.156 326.307 312.36 319.489 314.635C316.951 315.483 314.264 316.072 311.595 316.318C304.395 316.828 297.148 314.906 290.768 311.649C285.182 308.739 280.233 304.766 275.54 300.604C274.203 299.404 272.872 298.232 271.54 297.02C268.884 294.605 266.528 291.868 264.151 289.198C261.176 285.868 258.182 282.509 255.464 278.945C254.482 277.603 251.631 273.979 250.54 272.597C243.932 264.149 237.473 255.598 230.868 247.153C224.291 238.678 216.971 230.853 210.427 222.317L210.488 222.387C210.449 222.347 210.373 222.286 210.285 222.223L209.996 222.025C209.731 221.843 209.458 221.682 209.224 221.415C201.218 211.123 192.695 201.247 184.537 191.065L184.591 191.126C184.552 191.086 184.479 191.025 184.394 190.965L184.105 190.767C184.002 190.697 183.889 190.624 183.771 190.539C157.327 158.149 130.567 125.764 103.743 93.6431C96.9766 84.9979 87.2561 79.1989 76.9004 75.8362C60.1951 70.5202 41.1949 73.1995 26.4957 82.75L26.4927 82.7439Z" fill="url(#paint8_linear_48_4269)"/>
<g opacity="0.3">
<path d="M357 174.032V200.326C356.988 200.354 356.973 200.381 356.961 200.409V199.989C351.909 210.041 346.699 220.202 339.076 228.486C331.453 236.764 320.994 243.067 309.738 243.252C308.139 243.279 306.562 243.182 305.003 242.979C294.139 241.563 284.243 234.908 276.024 227.411C267.577 219.704 260.118 211.053 253.008 202.076C269.911 210.199 290.3 215.761 309.097 213.604C315.194 212.903 320.687 210.904 325.665 207.991C330.681 205.351 335.24 201.681 339.079 197.514C341.663 194.707 343.97 191.681 346.085 188.522C349.83 183.783 353.477 178.953 357.006 174.032H357Z" fill="#310075"/>
</g>
</g>
<defs>
<linearGradient id="paint0_linear_48_4269" x1="257.465" y1="92.2356" x2="449.894" y2="109.713" gradientUnits="userSpaceOnUse">
<stop stop-color="#37008A"/>
<stop offset="0.12" stop-color="#4D0E9E"/>
<stop offset="0.41" stop-color="#7C2CC7"/>
<stop offset="0.66" stop-color="#9D42E5"/>
<stop offset="0.86" stop-color="#B250F8"/>
<stop offset="1" stop-color="#BA55FF"/>
</linearGradient>
<linearGradient id="paint1_linear_48_4269" x1="306.011" y1="92.3411" x2="405.186" y2="96.9501" gradientUnits="userSpaceOnUse">
<stop stop-color="#37008A"/>
<stop offset="0.12" stop-color="#4D0E9E"/>
<stop offset="0.41" stop-color="#7C2CC7"/>
<stop offset="0.66" stop-color="#9D42E5"/>
<stop offset="0.86" stop-color="#B250F8"/>
<stop offset="1" stop-color="#BA55FF"/>
</linearGradient>
<linearGradient id="paint2_linear_48_4269" x1="303.8" y1="88.7481" x2="337.953" y2="89.4188" gradientUnits="userSpaceOnUse">
<stop stop-color="#37008A"/>
<stop offset="0.12" stop-color="#4D0E9E"/>
<stop offset="0.41" stop-color="#7C2CC7"/>
<stop offset="0.66" stop-color="#9D42E5"/>
<stop offset="0.86" stop-color="#B250F8"/>
<stop offset="1" stop-color="#BA55FF"/>
</linearGradient>
<linearGradient id="paint3_linear_48_4269" x1="4.45998" y1="224.608" x2="196.87" y2="242.123" gradientUnits="userSpaceOnUse">
<stop stop-color="#37008A"/>
<stop offset="0.12" stop-color="#4D0E9E"/>
<stop offset="0.41" stop-color="#7C2CC7"/>
<stop offset="0.66" stop-color="#9D42E5"/>
<stop offset="0.86" stop-color="#B250F8"/>
<stop offset="1" stop-color="#BA55FF"/>
</linearGradient>
<linearGradient id="paint4_linear_48_4269" x1="2.2303" y1="224.443" x2="99.0459" y2="228.845" gradientUnits="userSpaceOnUse">
<stop stop-color="#37008A"/>
<stop offset="0.12" stop-color="#4D0E9E"/>
<stop offset="0.41" stop-color="#7C2CC7"/>
<stop offset="0.66" stop-color="#9D42E5"/>
<stop offset="0.86" stop-color="#B250F8"/>
<stop offset="1" stop-color="#BA55FF"/>
</linearGradient>
<linearGradient id="paint5_linear_48_4269" x1="33.1761" y1="234.374" x2="71.8791" y2="235.219" gradientUnits="userSpaceOnUse">
<stop stop-color="#37008A"/>
<stop offset="0.12" stop-color="#4D0E9E"/>
<stop offset="0.41" stop-color="#7C2CC7"/>
<stop offset="0.66" stop-color="#9D42E5"/>
<stop offset="0.86" stop-color="#B250F8"/>
<stop offset="1" stop-color="#BA55FF"/>
</linearGradient>
<linearGradient id="paint6_linear_48_4269" x1="15.3115" y1="119.966" x2="645.154" y2="270.952" gradientUnits="userSpaceOnUse">
<stop stop-color="#37008A"/>
<stop offset="0.12" stop-color="#4D0E9E"/>
<stop offset="0.41" stop-color="#7C2CC7"/>
<stop offset="0.66" stop-color="#9D42E5"/>
<stop offset="0.86" stop-color="#B250F8"/>
<stop offset="1" stop-color="#BA55FF"/>
</linearGradient>
<linearGradient id="paint7_linear_48_4269" x1="15.3115" y1="187.499" x2="641.971" y2="344.585" gradientUnits="userSpaceOnUse">
<stop stop-color="#37008A"/>
<stop offset="0.12" stop-color="#4D0E9E"/>
<stop offset="0.41" stop-color="#7C2CC7"/>
<stop offset="0.66" stop-color="#9D42E5"/>
<stop offset="0.86" stop-color="#B250F8"/>
<stop offset="1" stop-color="#BA55FF"/>
</linearGradient>
<linearGradient id="paint8_linear_48_4269" x1="39.8252" y1="165.181" x2="580.196" y2="311.427" gradientUnits="userSpaceOnUse">
<stop stop-color="#37008A"/>
<stop offset="0.12" stop-color="#4D0E9E"/>
<stop offset="0.41" stop-color="#7C2CC7"/>
<stop offset="0.66" stop-color="#9D42E5"/>
<stop offset="0.86" stop-color="#B250F8"/>
<stop offset="1" stop-color="#BA55FF"/>
</linearGradient>
<clipPath id="clip0_48_4269">
<rect width="357" height="375" fill="white"/>
</clipPath>
</defs>
</svg>
